<svg viewBox="0 0 512 512" xmlns="http://www.w3.org/2000/svg" xmlns:xlink="http://www.w3.org/1999/xlink"><style>:root&gt;svg{display:none}:root&gt;svg:target{display:block}</style><svg viewBox="0 0 512 512" id="3d-printing" xmlns="http://www.w3.org/2000/svg"><path d="M232 120h16v16h-16zm40-56h16v16h-16zm24 0h16v16h-16z"/><path d="M488 32H336v-8a8 8 0 00-8-8H184a8 8 0 00-8 8v8H24a8 8 0 00-8 8v448a8 8 0 008 8h464a8 8 0 008-8V40a8 8 0 00-8-8zm-8 16v40H336V48zm-40 68.686L427.314 104H440zM456 104h24v272h-24zm-51.314 0L440 139.314v265.372L404.686 440h-57.265l-12.11-27.249A8 8 0 00328 408h-36.683l58.974-75.058a8 8 0 00.569-9.058l-24-40A8 8 0 00320 280h-16v-8a24.027 24.027 0 00-24-24h-56a8 8 0 010-16h16a24.027 24.027 0 0024-24v-8h16a8 8 0 007.155-4.422L300.945 168H304a8 8 0 008-8v-56zM440 427.314V440h-12.686zM157.468 456L146.8 480H128v-24zm31.731-32h133.602l24.889 56H164.31zm88.195-88l-20.572 72h-1.644l-20.572-72zm-36.75-16L256 300.806 271.355 320zm53.39 16h33.506l-52.652 67.011zm10.61-16l14.416-18.019L329.87 320zm-1.289-24L288 315.194 272.645 296zM224 315.194L208.645 296h30.71zm-31.06-13.213L207.355 320H182.13zM217.965 336l19.147 67.011L184.46 336zm136.567 120H384v24h-18.801zM296 120h-32v16h32v16h-80v-48h80zm-12.944 48l-8 16h-38.112l-8-16zM192 32h128v56H192zm8 72v56a8 8 0 008 8h3.056l13.789 27.578A8 8 0 00232 200h16v8a8.01 8.01 0 01-8 8h-16a24 24 0 000 48h56a8.01 8.01 0 018 8v8h-96a8 8 0 00-6.86 3.884l-24 40a8 8 0 00.57 9.058L220.682 408H184a8 8 0 00-7.31 4.751L164.578 440h-57.265L72 404.686V139.314L107.314 104zm-168 0h24v272H32zm40 0h12.686L72 116.686zm0 323.314L84.686 440H72zM32 48h144v40H32zm0 344h24v56a8 8 0 008 8h48v24H32zm368 88v-24h48a8 8 0 008-8v-56h24v88z"/><circle cx="48" cy="464" r="8"/><circle cx="464" cy="464" r="8"/></svg><svg viewBox="0 0 512.002 512.002" id="arrow" xmlns="http://www.w3.org/2000/svg"><path d="M388.425 241.951L151.609 5.79c-7.759-7.733-20.321-7.72-28.067.04-7.74 7.759-7.72 20.328.04 28.067l222.72 222.105-222.728 222.104c-7.759 7.74-7.779 20.301-.04 28.061a19.8 19.8 0 0014.057 5.835 19.79 19.79 0 0014.017-5.795l236.817-236.155c3.737-3.718 5.834-8.778 5.834-14.05s-2.103-10.326-5.834-14.051z"/></svg><svg viewBox="0 0 512 512" id="copyright" xmlns="http://www.w3.org/2000/svg"><path d="M256 512c-68.379 0-132.668-26.629-181.02-74.98C26.63 388.668 0 324.379 0 256S26.629 123.332 74.98 74.98C123.332 26.63 187.621 0 256 0s132.668 26.629 181.02 74.98C485.37 123.332 512 187.621 512 256s-26.629 132.668-74.98 181.02C388.668 485.37 324.379 512 256 512zm0-472C136.898 40 40 136.898 40 256s96.898 216 216 216 216-96.898 216-216S375.102 40 256 40zm105.36 321.36l-28.286-28.286c-42.5 42.5-111.648 42.5-154.148 0s-42.5-111.648 0-154.148 111.648-42.5 154.148 0l28.285-28.285c-58.097-58.094-152.625-58.094-210.718 0-58.094 58.097-58.094 152.625 0 210.718 29.047 29.047 67.203 43.57 105.359 43.57 38.152 0 76.313-14.523 105.36-43.57zm0 0"/></svg><svg viewBox="0 0 496 496" id="engineer" xmlns="http://www.w3.org/2000/svg"><path d="M447.808 390.192c-5.368-32.232-27.968-58.68-58.976-69.016L320 298.232V288h-16v15.008l-11.944 47.768L259.744 312h-23.496l-32.312 38.776L192 303.008V288h-16v10.232l-68.832 22.944c-31 10.336-53.6 36.784-58.976 69.016L30.552 496h434.896l-17.64-105.808zM104.76 480H49.448l2.568-15.44 53.616 6.704-.872 8.736zm104.304 0H120.84l7.12-71.2-15.92-1.592-4.816 48.136-52.576-6.576 9.32-55.944c4.4-26.368 22.888-48.008 48.256-56.464l66.104-22.04 17.728 70.904 18.04-21.648 9.544 14.32L209.064 480zm61.712 0h-45.552l15.128-105.896-15.568-23.352L243.744 328h8.504l18.96 22.752-15.568 23.352L270.776 480zm113.184-72.8l-15.92 1.592 7.12 71.2h-88.224l-14.584-102.104 9.544-14.32 18.048 21.656 17.728-70.904 66.104 22.04c25.368 8.456 43.856 30.096 48.256 56.472l9.32 55.944-52.576 6.576-4.816-48.152zm7.28 72.8l-.872-8.736 53.616-6.704 2.568 15.44H391.24z"/><path d="M121.128 150.88C115.512 157.768 112 166.44 112 176c0 20.528 15.6 37.296 35.536 39.552 4.08 14.04 11.616 26.912 22.24 37.536l31.2 31.2c7.552 7.552 17.592 11.712 28.28 11.712h37.496c10.68 0 20.728-4.16 28.28-11.712l31.2-31.2c10.624-10.624 18.16-23.504 22.24-37.536C368.4 213.296 384 196.528 384 176c0-9.56-3.512-18.232-9.128-25.12C384.744 147.904 392 138.832 392 128c0-13.232-10.768-24-24-24h-1.136C360.488 56.776 326.024 17.264 280 4.504V0h-64v4.504c-46.024 12.76-80.496 52.28-86.864 99.496H128c-13.232 0-24 10.768-24 24 0 10.832 7.256 19.904 17.128 22.88zM128 176c0-10.416 6.712-19.216 16-22.528v37.392c0 2.616.152 5.208.376 7.784C134.896 195.44 128 186.552 128 176zm207.992 14.864c.008 19.232-7.48 37.312-21.08 50.912l-31.2 31.2c-4.464 4.464-10.648 7.024-16.968 7.024h-37.496c-6.32 0-12.496-2.56-16.968-7.024l-31.2-31.2c-13.6-13.6-21.088-31.68-21.088-50.912V152h176v38.864zm15.632 7.776c.224-2.568.376-5.16.376-7.776v-37.392c9.288 3.312 16 12.112 16 22.528 0 10.552-6.896 19.44-16.376 22.64zM216 21.168V88h16V16h32v72h16V21.168C317.08 33.192 344.752 65.48 350.768 104H145.232C151.248 65.48 178.92 33.192 216 21.168zM128 120h240c4.408 0 8 3.592 8 8s-3.592 8-8 8H128c-4.408 0-8-3.592-8-8s3.592-8 8-8z"/><path d="M296 72h16v16h-16zm-112 0h16v16h-16z"/></svg><svg viewBox="0 0 24 24" id="facebook" xmlns="http://www.w3.org/2000/svg"><path d="M15.997 3.985h2.191V.169C17.81.117 16.51 0 14.996 0c-3.159 0-5.323 1.987-5.323 5.639V9H6.187v4.266h3.486V24h4.274V13.267h3.345l.531-4.266h-3.877V6.062c.001-1.233.333-2.077 2.051-2.077z"/></svg><svg viewBox="0 0 511 511.9" id="instargram" xmlns="http://www.w3.org/2000/svg"><path d="M510.95 150.5c-1.2-27.2-5.598-45.898-11.9-62.102-6.5-17.199-16.5-32.597-29.6-45.398-12.802-13-28.302-23.102-45.302-29.5-16.296-6.3-34.898-10.7-62.097-11.898C334.648.3 325.949 0 256.449 0s-78.199.3-105.5 1.5c-27.199 1.2-45.898 5.602-62.097 11.898-17.204 6.5-32.602 16.5-45.403 29.602-13 12.8-23.097 28.3-29.5 45.3-6.3 16.302-10.699 34.9-11.898 62.098C.75 177.801.449 186.5.449 256s.301 78.2 1.5 105.5c1.2 27.2 5.602 45.898 11.903 62.102 6.5 17.199 16.597 32.597 29.597 45.398 12.801 13 28.301 23.102 45.301 29.5 16.3 6.3 34.898 10.7 62.102 11.898 27.296 1.204 36 1.5 105.5 1.5s78.199-.296 105.5-1.5c27.199-1.199 45.898-5.597 62.097-11.898a130.934 130.934 0 0074.903-74.898c6.296-16.301 10.699-34.903 11.898-62.102 1.2-27.3 1.5-36 1.5-105.5s-.102-78.2-1.3-105.5zm-46.098 209c-1.102 25-5.301 38.5-8.801 47.5-8.602 22.3-26.301 40-48.602 48.602-9 3.5-22.597 7.699-47.5 8.796-27 1.204-35.097 1.5-103.398 1.5s-76.5-.296-103.403-1.5c-25-1.097-38.5-5.296-47.5-8.796C94.551 451.5 84.45 445 76.25 436.5c-8.5-8.3-15-18.3-19.102-29.398-3.5-9-7.699-22.602-8.796-47.5-1.204-27-1.5-35.102-1.5-103.403s.296-76.5 1.5-103.398c1.097-25 5.296-38.5 8.796-47.5C61.25 94.199 67.75 84.1 76.352 75.898c8.296-8.5 18.296-15 29.398-19.097 9-3.5 22.602-7.7 47.5-8.801 27-1.2 35.102-1.5 103.398-1.5 68.403 0 76.5.3 103.403 1.5 25 1.102 38.5 5.3 47.5 8.8 11.097 4.098 21.199 10.598 29.398 19.098 8.5 8.301 15 18.301 19.102 29.403 3.5 9 7.699 22.597 8.8 47.5 1.2 27 1.5 35.097 1.5 103.398s-.3 76.301-1.5 103.301zm0 0"/><path d="M256.45 124.5c-72.598 0-131.5 58.898-131.5 131.5s58.902 131.5 131.5 131.5c72.6 0 131.5-58.898 131.5-131.5s-58.9-131.5-131.5-131.5zm0 216.8c-47.098 0-85.302-38.198-85.302-85.3s38.204-85.3 85.301-85.3c47.102 0 85.301 38.198 85.301 85.3s-38.2 85.3-85.3 85.3zm167.402-222c0 16.954-13.747 30.7-30.704 30.7-16.953 0-30.699-13.746-30.699-30.7 0-16.956 13.746-30.698 30.7-30.698 16.956 0 30.703 13.742 30.703 30.699zm0 0"/></svg><svg viewBox="0 0 512 512" id="mail" xmlns="http://www.w3.org/2000/svg"><path d="M437.02 74.981C388.668 26.629 324.381 0 256 0S123.334 26.629 74.981 74.981C26.63 123.333.001 187.62.001 256S26.63 388.667 74.982 437.02C123.334 485.371 187.621 512 256.001 512c42.42 0 84.448-10.595 121.539-30.638 7.483-4.043 10.271-13.387 6.227-20.871-4.042-7.482-13.385-10.27-20.87-6.227-32.609 17.621-69.573 26.934-106.896 26.934-124.175 0-225.199-101.023-225.199-225.198S131.826 30.802 256 30.802c124.175 0 225.198 101.024 225.198 225.198 0 29.389-7.139 64.356-13.546 77.359-5.682 11.53-21.78 27.768-39.78 27.768-23.299 0-42.255-18.955-42.255-42.254V156.484c0-8.505-6.896-15.401-15.401-15.401s-15.401 6.895-15.401 15.401v15.736c-23.794-28.021-59.26-45.837-98.815-45.837-71.47 0-129.617 58.146-129.617 129.617 0 71.47 58.145 129.617 129.617 129.617 40.84 0 77.322-18.991 101.097-48.601 8.089 31.535 36.752 54.912 70.774 54.912 29.711 0 56.402-22.615 67.41-44.954 9.375-19.024 16.718-58.984 16.718-90.973.001-68.381-26.628-132.668-74.979-181.02zM256 354.815c-54.486 0-98.815-44.328-98.815-98.815 0-54.487 44.328-98.815 98.815-98.815 54.487 0 98.815 44.328 98.815 98.815 0 54.487-44.328 98.815-98.815 98.815z"/></svg><svg viewBox="0 0 512 512" id="team" xmlns="http://www.w3.org/2000/svg"><path d="M451.72 237.26c-17.422-8.71-50.087-8.811-51.469-8.811a7.5 7.5 0 000 15c8.429.001 32.902 1.299 44.761 7.228a7.502 7.502 0 006.708-13.417z"/><path d="M489.112 344.041l-30.975-8.85a3.145 3.145 0 01-2.271-3.011v-10.339a56.368 56.368 0 007.171-5.881c10.89-10.568 16.887-24.743 16.887-39.915v-14.267l2.995-5.989a47.846 47.846 0 005.024-21.286v-38.65a7.5 7.5 0 00-7.5-7.5H408.27c-26.244 0-47.596 21.352-47.596 47.596v.447a39.78 39.78 0 004.178 17.699l3.841 7.682v12.25c0 19.414 9.567 36.833 24.058 47.315l.002 10.836c0 1.671 0 2.363-6.193 4.133l-15.114 4.318-43.721-15.898a7.491 7.491 0 00-2.044-5.742l-13.971-14.678v-24.64a90.427 90.427 0 004.344-3.789c17.625-16.52 27.733-39.844 27.733-63.991v-19.678c5.322-11.581 8.019-23.836 8.019-36.457v-80.19a7.5 7.5 0 00-7.5-7.5H232.037c-39.51 0-71.653 32.144-71.653 71.653v16.039c0 12.621 2.697 24.876 8.019 36.457v16.931c0 28.036 12.466 53.294 32.077 69.946v25.22l-13.971 14.678a7.491 7.491 0 00-2.044 5.742l-46.145 16.779a39.33 39.33 0 00-9.272 4.858l-7.246-3.623c21.57-9.389 28.403-22.594 28.731-23.25a7.498 7.498 0 000-6.708c-5.407-10.814-6.062-30.635-6.588-46.561-.175-5.302-.341-10.311-.658-14.771-2.557-35.974-29.905-63.103-63.615-63.103s-61.059 27.128-63.615 63.103c-.317 4.461-.483 9.47-.658 14.773-.526 15.925-1.182 35.744-6.588 46.558a7.498 7.498 0 000 6.708c.328.656 7.147 13.834 28.76 23.234l-20.127 10.063C6.684 358.176 0 368.991 0 381.02v55.409a7.5 7.5 0 0015 0V381.02c0-6.312 3.507-11.987 9.152-14.81l25.063-12.531 8.718 8.285a31.466 31.466 0 0021.739 8.688 31.475 31.475 0 0021.739-8.688l8.717-8.284 8.172 4.086c-3.848 6.157-6.032 13.377-6.032 20.94v57.725a7.5 7.5 0 0015 0v-57.725c0-10.296 6.501-19.578 16.178-23.097l48.652-17.691 20.253 30.381a15.462 15.462 0 0011.383 6.835 15.458 15.458 0 0012.504-4.47l12.356-12.356v78.124a7.5 7.5 0 0015 0v-78.124l12.356 12.356a15.452 15.452 0 0010.957 4.547c.513 0 1.029-.025 1.546-.076a15.462 15.462 0 0011.384-6.835l20.254-30.38 48.651 17.691c9.676 3.519 16.178 12.801 16.178 23.097v57.725a7.5 7.5 0 0015 0v-57.725c0-10.428-4.143-20.208-11.093-27.441l1.853-.529c1.869-.534 4.419-1.265 6.979-2.52l19.149 19.149v69.066a7.5 7.5 0 0015 0v-69.066l19.016-19.016c1.011.514 2.073.948 3.191 1.267l30.976 8.85c7.07 2.02 12.009 8.567 12.009 15.921v62.044a7.5 7.5 0 0015 0v-62.044c0-14.018-9.412-26.497-22.888-30.348zM48.115 330.794c-14.029-5.048-21.066-11.778-24.07-15.453 2.048-5.354 3.376-11.486 4.275-17.959 4.136 9.917 11.063 18.383 19.795 24.423v8.989zm42.965 20.298c-6.397 6.078-16.418 6.077-22.813-.001l-6.975-6.628a15.518 15.518 0 001.824-7.324v-7.994a55.427 55.427 0 0016.558 2.517c5.757 0 11.316-.886 16.557-2.512l-.001 7.988c0 2.62.646 5.121 1.824 7.327l-6.974 6.627zm-11.404-34.43c-22.396 0-40.615-18.22-40.615-40.615a7.5 7.5 0 00-7.5-7.5c-.42 0-.83.043-1.231.11l.065-1.93c.167-5.157.328-10.028.625-14.206.958-13.476 6.343-25.894 15.163-34.968 8.899-9.156 20.793-14.198 33.491-14.198s24.591 5.042 33.491 14.198c8.82 9.074 14.205 21.492 15.163 34.968.296 4.177.458 9.047.628 14.203l.045 1.338c-8.16-12.572-20.762-21.837-37.045-27.069-15.043-4.833-27.981-4.534-28.527-4.52a7.5 7.5 0 00-5.191 2.291l-13.532 14.034a7.5 7.5 0 1010.798 10.412l11.26-11.677c9.697.474 40.894 4.102 53.027 30.819-3.053 19.688-19.975 34.31-40.115 34.31zm31.553 14.157l.001-8.945a55.477 55.477 0 0019.801-24.449c.899 6.458 2.226 12.576 4.27 17.918-2.987 3.64-10.057 10.43-24.072 15.476zm72.174-121.674v-18.608a7.501 7.501 0 00-.746-3.261c-4.826-9.994-7.273-20.598-7.273-31.518V139.72c0-31.239 25.415-56.653 56.653-56.653h104.769v72.692c0 10.92-2.447 21.524-7.273 31.518a7.501 7.501 0 00-.746 3.261v21.355c0 20.311-8.165 39.15-22.991 53.047a74.636 74.636 0 01-5.758 4.875c-.044.03-.086.063-.129.094-13.889 10.545-30.901 15.67-48.667 14.519-38.041-2.463-67.839-35.531-67.839-75.283zm42.229 150.911c-.052.052-.173.175-.418.149a.477.477 0 01-.381-.229l-23.325-34.988 7.506-7.887 35.385 24.187-18.767 18.768zm30.463-28.943l-40.615-27.762v-14c10.509 5.681 22.276 9.234 34.791 10.044 1.977.128 3.942.191 5.901.191 14.341 0 28.143-3.428 40.538-9.935v13.7l-40.615 27.762zm31.262 28.865a.477.477 0 01-.381.229c-.245.031-.365-.098-.418-.149l-18.767-18.767 35.385-24.188 7.507 7.887-23.326 34.988zm136.951-6.328l-17.02-17.019c.297-1.349.465-2.826.464-4.455l-.001-3.165a52.589 52.589 0 0016.579 2.65 55.71 55.71 0 0016.536-2.501v3.02c0 1.496.188 2.962.542 4.371l-17.1 17.099zm28.283-48.454c-7.949 7.714-18.45 11.788-29.537 11.446-21.704-.651-39.361-19.768-39.361-42.613v-14.021a7.493 7.493 0 00-.792-3.354l-4.633-9.266a24.706 24.706 0 01-2.594-10.991v-.447c0-17.974 14.623-32.596 32.596-32.596h64.673v31.15a32.77 32.77 0 01-3.441 14.578l-3.786 7.572a7.496 7.496 0 00-.792 3.354v16.038c0 11.08-4.38 21.432-12.333 29.15z"/><path d="M472.423 380.814a7.5 7.5 0 00-7.5 7.5v48.115a7.5 7.5 0 0015 0v-48.115a7.5 7.5 0 00-7.5-7.5zm-432.846 9.914a7.5 7.5 0 00-7.5 7.5v38.201a7.5 7.5 0 0015 0v-38.201a7.5 7.5 0 00-7.5-7.5zm277.955-232.253c-28.366-28.366-87.715-22.943-111.917-19.295-7.623 1.149-13.155 7.6-13.155 15.339v17.278a7.5 7.5 0 0015 0v-17.279c0-.255.168-.473.392-.507 9.667-1.457 28.85-3.705 48.725-2.38 23.388 1.557 40.328 7.428 50.349 17.45a7.5 7.5 0 0010.606 0 7.5 7.5 0 000-10.606zM167.884 396.853a7.5 7.5 0 00-7.5 7.5v32.077a7.5 7.5 0 0015 0v-32.077a7.5 7.5 0 00-7.5-7.5zm176.422 0a7.5 7.5 0 00-7.5 7.5v32.077a7.5 7.5 0 0015 0v-32.077a7.5 7.5 0 00-7.5-7.5z"/></svg><svg viewBox="0 0 60 60" id="thinking" xmlns="http://www.w3.org/2000/svg"><g transform="translate(-1 -1)"><path d="M2.471 38.391c.33.228.676.429 1.038.6.433.221 1.157.591 1.208.851.064.341.023.694-.117 1.012-.149.32-.306.595-.44.833-.367.646-.979 1.729-.055 2.485.216.2.589.489.93.75a2.52 2.52 0 00-.326 1.443c.053.394.265.748.587.98.225.16.466.3.7.435.588.335.818.491.9.8.054.407.016.82-.11 1.211a9.38 9.38 0 00-.153.785 5.87 5.87 0 00.338 2.694A3.747 3.747 0 0010.514 56c.275-.001.548-.03.817-.086a75.815 75.815 0 008.431-2.523c2.252 1.322 3.676 5.342 4.047 6.851a1 1 0 00.971.758l25.1-.07a1 1 0 00.952-1.3 7.725 7.725 0 00-1.013-1.9 9.281 9.281 0 01-.648-1.08c-.452-.917-.83-1.87-1.129-2.847a33.7 33.7 0 01-1.183-5.916 16.929 16.929 0 011.314-8.781c.74-1.53 1.65-2.97 2.716-4.293.6-.81 1.223-1.649 1.782-2.53a15.466 15.466 0 002.06-4.87 1 1 0 00-1.948-.452 13.5 13.5 0 01-1.8 4.25c-.519.821-1.119 1.629-1.7 2.411a24.166 24.166 0 00-2.943 4.685 18.918 18.918 0 00-1.466 9.82c.23 2.125.653 4.224 1.261 6.273a20.855 20.855 0 001.241 3.132c.228.45.487.885.775 1.3l.067.1L25.536 59a15.947 15.947 0 00-3.521-6.386l.9-.313c.672-.235 1.179-.412 1.441-.5 4.282-1.365 6.424-3.315 6.365-5.8a.982.982 0 00-1.021-.971 1 1 0 00-.976 1.023c.024 1.023-.819 2.521-4.976 3.845-.272.087-.8.27-1.491.513-.743.259-1.685.589-2.725.942h-.007a77.879 77.879 0 01-8.594 2.6 1.781 1.781 0 01-2.06-1.331 4 4 0 01-.247-1.772c.029-.2.076-.41.122-.614a4.364 4.364 0 00.1-2.153A3.314 3.314 0 007 46.042l-.215-.123a3.68 3.68 0 01.386-.62 1 1 0 00-.193-1.424c-.239-.176-.8-.6-1.22-.934.048-.087.1-.183.151-.269.157-.276.337-.6.511-.967.317-.7.41-1.482.266-2.237-.239-1.22-1.408-1.818-2.261-2.254a5.782 5.782 0 01-.824-.479 4.26 4.26 0 01-.6-.486c0-.152.163-.519.924-1.446A40.346 40.346 0 008.5 27.368c.235-.413.367-.877.386-1.352a3.5 3.5 0 00-1.467-2.5c-.405-.372-.788-.722-.831-1.017.01-.245.064-.486.162-.711.163-.428.352-.848.54-1.269a14.65 14.65 0 001-2.711c.23-1.12.53-2.226.9-3.308a17.145 17.145 0 013.588-5.861C14.69 6.614 17.7 5.182 21.74 4.38a64.983 64.983 0 019.382-1.352 21.889 21.889 0 013.185.068 1.002 1.002 0 10.186-1.996 24.325 24.325 0 00-3.476-.069c-3.254.226-6.486.69-9.672 1.388-4.509.9-7.786 2.481-10.022 4.845a19.127 19.127 0 00-4.012 6.543 29.234 29.234 0 00-.985 3.614 12.951 12.951 0 01-.858 2.28c-.2.455-.406.91-.586 1.383a3.494 3.494 0 00-.272 1.679 3.845 3.845 0 001.463 2.226c.49.449.813.765.817 1.041a1.694 1.694 0 01-.17.434 38.6 38.6 0 01-4.376 7.111c-.724.883-1.484 1.912-1.325 2.942.213.794.736 1.47 1.452 1.874z"/><path d="M12.938 15.889c.602-1.67 1.536-3.2 2.744-4.5 1.333-1.411 3.638-2.45 6.852-3.089a1 1 0 00-.389-1.962c-3.629.722-6.292 1.958-7.916 3.674a15.16 15.16 0 00-3.168 5.188c-.337.999-.61 2.018-.821 3.051l1.953.433a23.9 23.9 0 01.745-2.795zM33.859 6.6l-.6 2.992c-.578.19-1.141.424-1.684.7l-2.539-1.7a2 2 0 00-2.512.261l-1.66 1.659a2 2 0 00-.264 2.535l1.692 2.527c-.276.543-.51 1.106-.7 1.684l-2.988.6A2 2 0 0021 19.82v2.36a2 2 0 001.6 1.961l2.992.6c.19.578.424 1.141.7 1.684l-1.7 2.539a2 2 0 00.261 2.512l1.66 1.66a2.006 2.006 0 002.534.263l2.527-1.692c.543.276 1.106.51 1.684.7l.6 2.988A2 2 0 0035.82 37h2.36a2 2 0 001.961-1.6l.6-2.992c.578-.19 1.141-.424 1.684-.7l2.539 1.7a2 2 0 002.512-.261l1.659-1.659a2 2 0 00.264-2.535l-1.692-2.527c.276-.543.51-1.106.7-1.684l2.988-.6a1.99 1.99 0 001.377-1.042l1.507 1.01c.29.183.627.28.971.281a1.8 1.8 0 001.277-.531l1.33-1.33a1.816 1.816 0 00.233-2.274l-1.29-1.93a9.4 9.4 0 00.484-1.162l2.263-.451A1.8 1.8 0 0061 14.94v-1.88a1.8 1.8 0 00-1.445-1.771l-2.273-.453a9.256 9.256 0 00-.482-1.162l1.31-1.953c.454-.715.35-1.65-.25-2.248l-1.33-1.33a1.815 1.815 0 00-2.274-.233l-1.93 1.29a9.4 9.4 0 00-1.162-.484l-.452-2.263A1.8 1.8 0 0048.94 1h-1.88a1.8 1.8 0 00-1.771 1.445l-.453 2.273a9.256 9.256 0 00-1.162.485l-1.953-1.31a1.809 1.809 0 00-2.248.25l-.9.9A2.049 2.049 0 0038.18 5h-2.36a2 2 0 00-1.961 1.6zm15.288 3.92l-.467-.467a3.979 3.979 0 011.243 7.507l-1.518-.3a11.906 11.906 0 00-.7-1.684l1.7-2.539a2 2 0 00-.258-2.514v-.003zm-8.37-4.856L43.063 7.2a1 1 0 001.068.029 7.315 7.315 0 011.83-.765 1 1 0 00.72-.77L47.218 3h1.564l.537 2.7a1 1 0 00.72.77c.642.17 1.258.428 1.83.765a1 1 0 001.068-.035l2.286-1.534 1.11 1.11L54.8 9.063a1 1 0 00-.029 1.068c.337.572.594 1.188.765 1.83a1 1 0 00.77.72l2.7.537v1.564l-2.695.537a1 1 0 00-.77.72 7.315 7.315 0 01-.765 1.83 1 1 0 00.029 1.068l1.534 2.286-1.11 1.11L53 20.842V19.82c0-.585-.256-1.142-.7-1.523A5.986 5.986 0 0048.13 8a5.787 5.787 0 00-1.779.292 2.028 2.028 0 00-1.4.308l-2.525 1.692a11.906 11.906 0 00-1.684-.7l-.6-2.988a1.834 1.834 0 00-.069-.236l.704-.704zM35.1 10.577L35.82 7h2.36l.719 3.58a1 1 0 00.719.768c.826.223 1.62.552 2.361.98a1 1 0 001.058-.034l3.026-2.024 1.676 1.667-2.03 3.029a1 1 0 00-.034 1.058c.428.741.757 1.535.98 2.361a1 1 0 00.768.719l3.577.715v2.361l-3.58.719a1 1 0 00-.768.719 9.851 9.851 0 01-.98 2.361 1 1 0 00.034 1.058l2.024 3.026-1.667 1.676-3.029-2.03a1 1 0 00-1.058-.034 9.851 9.851 0 01-2.361.98 1 1 0 00-.719.768L38.18 35h-2.36l-.719-3.58a1 1 0 00-.719-.768 9.851 9.851 0 01-2.361-.98 1 1 0 00-1.058.034l-3.026 2.024-1.676-1.667 2.03-3.029a1 1 0 00.034-1.058 9.851 9.851 0 01-.98-2.361 1 1 0 00-.768-.719L23 22.18v-2.36l3.58-.719a1 1 0 00.768-.719c.223-.826.552-1.62.98-2.361a1 1 0 00-.034-1.058l-2.024-3.026 1.667-1.676 3.029 2.03a1 1 0 001.058.034 9.851 9.851 0 012.361-.98 1 1 0 00.715-.768z"/><path d="M37 28a7 7 0 10-7-7 7.008 7.008 0 007 7zm0-12a5 5 0 110 10 5 5 0 010-10z"/><circle cx="37" cy="21" r="1"/><circle cx="10" cy="22" r="1"/></g></svg><svg viewBox="0 0 512 512" id="twitter" xmlns="http://www.w3.org/2000/svg"><path d="M512 97.248c-19.04 8.352-39.328 13.888-60.48 16.576 21.76-12.992 38.368-33.408 46.176-58.016-20.288 12.096-42.688 20.64-66.56 25.408C411.872 60.704 384.416 48 354.464 48c-58.112 0-104.896 47.168-104.896 104.992 0 8.32.704 16.32 2.432 23.936-87.264-4.256-164.48-46.08-216.352-109.792-9.056 15.712-14.368 33.696-14.368 53.056 0 36.352 18.72 68.576 46.624 87.232-16.864-.32-33.408-5.216-47.424-12.928v1.152c0 51.008 36.384 93.376 84.096 103.136-8.544 2.336-17.856 3.456-27.52 3.456-6.72 0-13.504-.384-19.872-1.792 13.6 41.568 52.192 72.128 98.08 73.12-35.712 27.936-81.056 44.768-130.144 44.768-8.608 0-16.864-.384-25.12-1.44C46.496 446.88 101.6 464 161.024 464c193.152 0 298.752-160 298.752-298.688 0-4.64-.16-9.12-.384-13.568 20.832-14.784 38.336-33.248 52.608-54.496z"/></svg><svg viewBox="-13 0 512 512.001" id="worker" xmlns="http://www.w3.org/2000/svg"><path d="M174.234 318.445h-30.023c-9.352 0-16.961-7.605-16.961-16.96V284.75c0-.988-.7-1.844-1.734-2.129a127.119 127.119 0 01-29.836-12.394c-.852-.489-1.856-.391-2.493.246l-11.953 11.953a16.844 16.844 0 01-11.992 4.965 16.852 16.852 0 01-11.992-4.965l-21.23-21.23a16.855 16.855 0 01-4.97-11.993c0-4.531 1.766-8.793 4.97-11.992l11.949-11.953c.64-.637.738-1.64.246-2.492a127.272 127.272 0 01-12.39-29.836c-.286-1.035-1.141-1.735-2.13-1.735H16.961c-9.352 0-16.961-7.61-16.961-16.96V144.21c0-9.352 7.61-16.961 16.96-16.961h16.735c.989 0 1.844-.695 2.13-1.734A127.256 127.256 0 0148.218 95.68c.488-.852.39-1.856-.246-2.492L36.02 81.234a16.841 16.841 0 01-4.97-11.992c0-4.527 1.766-8.789 4.97-11.992l21.23-21.23c3.203-3.204 7.46-4.965 11.992-4.965s8.793 1.761 11.996 4.968l11.95 11.95c.636.636 1.636.734 2.492.246a127.256 127.256 0 0129.832-12.395c1.043-.285 1.738-1.14 1.738-2.129V16.961C127.25 7.609 134.86 0 144.21 0h30.024c9.352 0 16.961 7.61 16.961 16.96v16.735c0 .989.696 1.844 1.735 2.125a127.337 127.337 0 0129.832 12.399c.855.488 1.855.39 2.496-.246l11.949-11.953c6.629-6.625 17.36-6.63 23.988.003l2.246 2.247c7.012 7.007-3.586 17.625-10.605 10.605-1.383-1.195-3.156-4.113-5.02-2.246l-11.953 11.95c-5.406 5.405-13.863 6.495-20.566 2.648a112.404 112.404 0 00-26.313-10.934c-7.53-2.05-12.793-8.879-12.793-16.602v-16.73a1.961 1.961 0 00-1.96-1.961h-30.024a1.961 1.961 0 00-1.957 1.96v16.735c0 7.723-5.262 14.547-12.793 16.602a112.351 112.351 0 00-26.316 10.93c-6.7 3.847-15.157 2.757-20.563-2.649l-11.95-11.95a1.919 1.919 0 00-1.386-.573c-.37 0-.91.097-1.383.574l-21.234 21.23a1.927 1.927 0 00-.574 1.383c0 .371.101.914.574 1.387l11.953 11.953c5.406 5.406 6.496 13.86 2.649 20.563a112.432 112.432 0 00-10.934 26.316c-2.05 7.531-8.879 12.789-16.598 12.789H16.961A1.965 1.965 0 0015 144.21v30.024c0 1.082.879 1.961 1.96 1.961h16.735c7.72 0 14.547 5.258 16.602 12.79a112.12 112.12 0 0010.93 26.316c3.847 6.703 2.757 15.156-2.649 20.562l-11.95 11.953a1.913 1.913 0 00-.573 1.387c0 .367.101.91.574 1.387l21.23 21.226c.766.766 2.008.77 2.774 0l11.949-11.949c5.406-5.406 13.863-6.496 20.566-2.648a112.335 112.335 0 0026.313 10.933c7.531 2.051 12.793 8.88 12.793 16.602v16.73c0 1.082.879 1.961 1.957 1.961h30.023a1.962 1.962 0 001.961-1.96v-16.731c0-7.723 5.262-14.55 12.793-16.602 9.582-2.609 13.512 11.864 3.946 14.47-1.04.284-1.739 1.14-1.739 2.132v16.73c0 9.352-7.61 16.961-16.96 16.961zm0 0"/><path d="M88.535 159.223c0-49.594 49.867-83.59 95.82-66.082 9.262 3.535 3.938 17.554-5.343 14.02-36.266-13.825-75.48 13.097-75.48 52.062 0 31.695 26.695 57.484 59.015 55.59 9.883-.598 10.808 14.39.883 14.976-40.754 2.399-74.895-30.101-74.895-70.566zm0 0"/><path d="M415.04 333.05l-75.993-14.777v-18.777c21.34-14.559 32.894-35.176 35.41-58.332 11.078-.879 19.82-10.172 19.82-21.469v-15.414c18.059-7.851 15.621-34.207-3.484-38.652v-5.95c0-53.488-43.363-96.85-96.848-96.85h-8.12c-53.49 0-96.848 43.362-96.848 96.847v5.953c-19.098 4.441-21.551 30.8-3.485 38.652v15.414c0 11.297 8.742 20.59 19.82 21.47 2.196 20.202 11.665 38.694 26.602 51.554a98.582 98.582 0 008.809 6.777v18.777l-75.993 14.778c-40.093 7.797-71.343 30.398-71.343 72.101v76.286c0 16.878 13.683 30.562 30.562 30.562H455.82c16.88 0 30.563-13.684 30.563-30.563v-76.285c0-41.566-31.059-64.27-71.344-72.101zm-62.427 3.141a19554.07 19554.07 0 01-22.761 33.02c-3.664 5.309-10.239 5.984-12.809 4.445l-11.848-7.105c11.555-6.824 27.543-18.543 32.395-33.281zm-62.73 21.614c-11.39-5.735-34.098-19.903-34.16-33.293v-16.735a86.127 86.127 0 0068.324 0v16.676c0 13.414-22.762 27.613-34.164 33.352zm-85.906-198.13c0-30.765 17.062-57.62 42.222-71.597v9.402c0 9.915 15 9.93 15 0V81.613a81.32 81.32 0 0121.184-3.71v37.085c0 9.914 15 9.93 15 0V77.902a81.35 81.35 0 0121.187 3.711V97.48c0 9.915 15 9.93 15 0v-9.402c25.16 13.977 42.223 40.832 42.223 71.598v5.422H203.977zm-10.368 20.423H386.16c7.188 0 7.18 10.863 0 10.863H193.61c-7.192 0-7.184-10.863 0-10.863zm26.227 53.472a7.5 7.5 0 00-7.5-7.34c-1.25-.308-11.848 1.95-11.848-6.535v-13.73h178.79v13.73c0 8.47-10.88 6.297-11.848 6.535a7.505 7.505 0 00-7.5 7.34c-.403 18.75-8.371 36.164-21.86 47.782-28.644 24.664-67.726 24.668-96.37 0-13.493-11.618-21.462-29.032-21.864-47.782zm22.34 99.7c4.855 14.738 20.84 26.457 32.398 33.28-11.875 6.36-11.035 8.263-16.43 7.626-3.355-.403-6.367-2.27-8.289-5.051a25354.928 25354.928 0 01-22.703-32.934zM155.64 497h-31.696c-8.593 0-15.562-6.969-15.562-15.563v-76.285c0-22.476 10.21-38.015 32.61-48.75.905 3.993 14.648 41.293 14.648 93.414zm126.742 0H170.64v-47.184c0-56.472-14.258-92.836-15.66-98.992 8.757-2.91 2.253-.668 56.117-11.511 15.48 22.496 44.37 64.468 61.402 88.675 6.469 9.192 9.883 19.989 9.883 31.227zm7.5-69.152a70.604 70.604 0 00-5.113-8.489c-5.758-8.18-13.23-18.914-21.028-30.168a22.48 22.48 0 006.7-2.671l19.44-11.66 19.446 11.66a22.44 22.44 0 006.7 2.671c-7.798 11.247-15.27 21.98-21.028 30.168a70.13 70.13 0 00-5.117 8.489zm181.5 53.59c0 8.593-6.965 15.562-15.563 15.562h-31.695v-28.297c0-9.914-15-9.93-15 0V497H297.383v-37.785c0-11.238 3.418-22.035 9.883-31.223 9.687-13.77 49.574-71.328 61.406-88.68 53.836 10.84 47.344 8.598 56.113 11.512-1.09 4.613-13.71 38.914-15.453 87.57-.36 9.938 14.633 10.426 14.988.54 1.688-47.086 13.239-77.383 14.453-82.532 22.399 10.735 32.61 26.274 32.61 48.746zm0 0"/></svg></svg>