<svg xmlns="http://www.w3.org/2000/svg" width="512" height="512"><path d="M232 120h16v16h-16zm40-56h16v16h-16zm24 0h16v16h-16z"/><path d="M488 32H336v-8a8 8 0 00-8-8H184a8 8 0 00-8 8v8H24a8 8 0 00-8 8v448a8 8 0 008 8h464a8 8 0 008-8V40a8 8 0 00-8-8zm-8 16v40H336V48zm-40 68.686L427.314 104H440zM456 104h24v272h-24zm-51.314 0L440 139.314v265.372L404.686 440h-57.265l-12.11-27.249A8 8 0 00328 408h-36.683l58.974-75.058a8 8 0 00.569-9.058l-24-40A8 8 0 00320 280h-16v-8a24.027 24.027 0 00-24-24h-56a8 8 0 010-16h16a24.027 24.027 0 0024-24v-8h16a8 8 0 007.155-4.422L300.945 168H304a8 8 0 008-8v-56zM440 427.314V440h-12.686zM157.468 456L146.8 480H128v-24zm31.731-32h133.602l24.889 56H164.31zm88.195-88l-20.572 72h-1.644l-20.572-72zm-36.75-16L256 300.806 271.355 320zm53.39 16h33.506l-52.652 67.011zm10.61-16l14.416-18.019L329.87 320zm-1.289-24L288 315.194 272.645 296zM224 315.194L208.645 296h30.71zm-31.06-13.213L207.355 320H182.13zM217.965 336l19.147 67.011L184.46 336zm136.567 120H384v24h-18.801zM296 120h-32v16h32v16h-80v-48h80zm-12.944 48l-8 16h-38.112l-8-16zM192 32h128v56H192zm8 72v56a8 8 0 008 8h3.056l13.789 27.578A8 8 0 00232 200h16v8a8.01 8.01 0 01-8 8h-16a24 24 0 000 48h56a8.01 8.01 0 018 8v8h-96a8 8 0 00-6.86 3.884l-24 40a8 8 0 00.57 9.058L220.682 408H184a8 8 0 00-7.31 4.751L164.578 440h-57.265L72 404.686V139.314L107.314 104zm-168 0h24v272H32zm40 0h12.686L72 116.686zm0 323.314L84.686 440H72zM32 48h144v40H32zm0 344h24v56a8 8 0 008 8h48v24H32zm368 88v-24h48a8 8 0 008-8v-56h24v88z"/><circle cx="48" cy="464" r="8"/><circle cx="464" cy="464" r="8"/></svg>