<?xml version="1.0" encoding="UTF-8"?>
<svg xmlns="http://www.w3.org/2000/svg" id="outline" viewBox="0 0 512 512" width="512" height="512"><rect x="232" y="120" width="16" height="16"/><rect x="272" y="64" width="16" height="16"/><rect x="296" y="64" width="16" height="16"/><path d="M488,32H336V24a8.00008,8.00008,0,0,0-8-8H184a8.00008,8.00008,0,0,0-8,8v8H24a8.00008,8.00008,0,0,0-8,8V488a8.00008,8.00008,0,0,0,8,8H488a8.00008,8.00008,0,0,0,8-8V40A8.00008,8.00008,0,0,0,488,32Zm-8,16V88H336V48Zm-40,68.686L427.314,104H440ZM456,104h24V376H456Zm-51.314,0L440,139.314V404.686L404.686,440h-57.2649l-12.11059-27.249A8.00079,8.00079,0,0,0,328,408H291.31653l58.974-75.05762a7.99921,7.99921,0,0,0,.56933-9.05859l-24-40A8.00072,8.00072,0,0,0,320,280H304v-8a24.02718,24.02718,0,0,0-24-24H224a8,8,0,0,1,0-16h16a24.02718,24.02718,0,0,0,24-24v-8h16a7.99967,7.99967,0,0,0,7.15527-4.42188L300.94434,168H304a8.00008,8.00008,0,0,0,8-8V104ZM440,427.314V440H427.314ZM157.46765,456,146.801,480H128V456Zm31.73157-32H322.80078l24.88916,56H164.31006Zm88.19458-88-20.57153,72h-1.64454L234.6062,336Zm-36.749-16L256,300.80591,271.35522,320Zm53.38989,16h33.50549l-52.65173,67.01123Zm10.61011-16,14.41479-18.01855L329.87036,320Zm-1.28956-24L288,315.19409,272.64478,296ZM224,315.19409,208.64478,296h30.71044Zm-31.05957-13.21264L207.35522,320H182.12964ZM217.96533,336l19.14624,67.01123L184.45984,336Zm136.567,120H384v24H365.199ZM296,120H264v16h32v16H216V104h80Zm-12.94434,48-8,16H236.94434l-8-16ZM192,32H320V88H192Zm8,72v56a8.00008,8.00008,0,0,0,8,8h3.05566l13.78907,27.57812A7.99967,7.99967,0,0,0,232,200h16v8a8.00917,8.00917,0,0,1-8,8H224a24,24,0,0,0,0,48h56a8.00917,8.00917,0,0,1,8,8v8H192a8.00072,8.00072,0,0,0-6.85986,3.88379l-24,40a7.99921,7.99921,0,0,0,.56933,9.05859L220.68347,408H184a8.00079,8.00079,0,0,0-7.31055,4.751L164.57886,440H107.314L72,404.686V139.314L107.314,104ZM32,104H56V376H32Zm40,0H84.686L72,116.686Zm0,323.314L84.686,440H72ZM32,48H176V88H32Zm0,344H56v56a8.00008,8.00008,0,0,0,8,8h48v24H32Zm368,88V456h48a8.00008,8.00008,0,0,0,8-8V392h24v88Z"/><circle cx="48" cy="464" r="8"/><circle cx="464" cy="464" r="8"/></svg>
