<?xml version="1.0" standalone="no"?>
<!DOCTYPE svg PUBLIC "-//W3C//DTD SVG 20010904//EN"
 "http://www.w3.org/TR/2001/REC-SVG-20010904/DTD/svg10.dtd">
<svg version="1.0" xmlns="http://www.w3.org/2000/svg"
 width="100.000000pt" height="100.000000pt" viewBox="0 0 100.000000 100.000000"
 preserveAspectRatio="xMidYMid meet">
<metadata>
Created by potrace 1.16, written by Peter Selinger 2001-2019
</metadata>
<g transform="translate(0.000000,100.000000) scale(0.100000,-0.100000)"
fill="#000000" stroke="none">
<path d="M722 777 l-63 -64 -46 24 c-87 44 -202 27 -278 -39 -87 -77 -114
-198 -67 -302 l23 -50 -63 -63 c-66 -66 -69 -80 -24 -107 14 -9 27 0 79 54
l63 65 49 -24 c91 -46 219 -26 285 44 23 24 23 25 5 45 -23 26 -30 25 -68 -4
-55 -42 -129 -50 -200 -21 -16 7 18 45 204 231 l223 223 -24 26 c-13 14 -26
25 -30 25 -3 0 -34 -29 -68 -63z m-153 -98 c17 -6 31 -14 31 -18 0 -3 -58 -64
-128 -134 l-129 -129 -13 33 c-18 42 -16 118 3 155 44 84 146 124 236 93z"/>
</g>
</svg>
