<svg version="1.0" xmlns="http://www.w3.org/2000/svg" width="133.333" height="133.333" viewBox="0 0 100 100"><path d="M72.2 22.3l-6.3 6.4-4.6-2.4c-8.7-4.4-20.2-2.7-27.8 3.9-8.7 7.7-11.4 19.8-6.7 30.2l2.3 5-6.3 6.3c-6.6 6.6-6.9 8-2.4 10.7 1.4.9 2.7 0 7.9-5.4l6.3-6.5 4.9 2.4c9.1 4.6 21.9 2.6 28.5-4.4 2.3-2.4 2.3-2.5.5-4.5-2.3-2.6-3-2.5-6.8.4-5.5 4.2-12.9 5-20 2.1-1.6-.7 1.8-4.5 20.4-23.1l22.3-22.3-2.4-2.6c-1.3-1.4-2.6-2.5-3-2.5-.3 0-3.4 2.9-6.8 6.3zm-15.3 9.8c1.7.6 3.1 1.4 3.1 1.8 0 .3-5.8 6.4-12.8 13.4L34.3 60.2 33 56.9c-1.8-4.2-1.6-11.8.3-15.5C37.7 33 47.9 29 56.9 32.1z"/></svg>